<svg width="58" height="58" viewBox="0 0 58 58" fill="none" xmlns="http://www.w3.org/2000/svg">
<path d="M40.0989 0.884033H4.49292C2.50014 0.884033 0.88394 2.50023 0.88394 4.49302V43.8283C0.88394 45.2876 1.76265 46.603 3.11209 47.1627C4.45892 47.7197 6.01236 47.4111 7.04536 46.3807L24.4286 28.9975C25.8382 27.5879 25.8382 25.3022 24.4286 23.8926C23.0216 22.483 20.7333 22.483 19.3237 23.8926L8.1019 35.1144V8.102H40.0989C45.5019 8.102 49.8981 12.4982 49.8981 17.9012V40.099C49.8981 45.502 45.5019 49.8982 40.0989 49.8982H22.8883L34.1101 38.6763C35.5197 37.2668 35.5197 34.9811 34.1101 33.5715C32.7031 32.1619 30.4148 32.1619 29.0052 33.5715L11.622 50.9547C10.589 51.9877 10.2804 53.5386 10.84 54.888C11.3997 56.2374 12.7151 57.1162 14.1744 57.1162H40.0989C49.4823 57.1162 57.1161 49.4824 57.1161 40.099V17.9012C57.1161 8.51781 49.4823 0.884033 40.0989 0.884033Z" fill="white"/>
<path d="M39.9472 31.3407C41.94 31.3407 43.5562 29.7245 43.5562 27.7317V18.0528C43.5562 16.06 41.94 14.4438 39.9472 14.4438H30.2684C28.2756 14.4438 26.6594 16.06 26.6594 18.0528C26.6594 20.0456 28.2756 21.6618 30.2684 21.6618H36.3383V27.7317C36.3383 29.7245 37.9545 31.3407 39.9472 31.3407Z" fill="white"/>
</svg>
